<svg width="943" height="218" viewBox="0 0 943 218" fill="none" xmlns="http://www.w3.org/2000/svg">
  <!-- Speech bubble icon -->
  <path d="M30 45C30 36.7157 36.7157 30 45 30H173C181.284 30 188 36.7157 188 45V135C188 143.284 181.284 150 173 150H90L60 180V150H45C36.7157 150 30 143.284 30 135V45Z" fill="#3C4B5C"/>
  <rect x="55" y="60" width="108" height="14" rx="7" fill="white"/>
  <rect x="55" y="90" width="108" height="14" rx="7" fill="white"/>
  <rect x="55" y="120" width="72" height="14" rx="7" fill="white"/>
  
  <!-- Glotter text -->
  <path d="M340.6 157.9c-15.1 0-27.6-4.4-37.5-13.2-9.9-8.8-15.4-20.8-16.5-36h26.8c0.8 8.4 3.6 14.9 8.4 19.5 4.8 4.6 11.2 6.9 19.2 6.9 7.6 0 13.6-1.9 18-5.7 4.4-3.8 6.6-8.8 6.6-15 0-5.6-1.9-10-5.7-13.2-3.8-3.2-10.6-6.2-20.4-9-12.8-3.6-22.4-8-28.8-13.2-6.4-5.2-9.6-12.8-9.6-22.8 0-10.4 4-18.8 12-25.2 8-6.4 18.4-9.6 31.2-9.6 13.2 0 24 3.6 32.4 10.8 8.4 7.2 13.2 17.2 14.4 30h-26.4c-0.8-6.8-3.2-12-7.2-15.6-4-3.6-9.2-5.4-15.6-5.4-6 0-10.8 1.6-14.4 4.8-3.6 3.2-5.4 7.6-5.4 13.2 0 5.2 1.8 9.2 5.4 12 3.6 2.8 10 5.6 19.2 8.4 13.2 3.6 23.2 8.2 30 13.8 6.8 5.6 10.2 13.6 10.2 24 0 11.6-4.4 20.8-13.2 27.6-8.8 6.8-20.4 10.2-34.8 10.2z" fill="#3C4B5C"/>
  <path d="M421.8 23.4v134.1h-25.2V23.4h25.2z" fill="#3C4B5C"/>
  <path d="M507.8 158.5c-14 0-25.6-4.4-34.8-13.2-9.2-8.8-13.8-20.4-13.8-34.8 0-14.4 4.6-26 13.8-34.8 9.2-8.8 20.8-13.2 34.8-13.2 14 0 25.6 4.4 34.8 13.2 9.2 8.8 13.8 20.4 13.8 34.8 0 14.4-4.6 26-13.8 34.8-9.2 8.8-20.8 13.2-34.8 13.2zm0-21.6c7.6 0 13.8-2.6 18.6-7.8 4.8-5.2 7.2-12 7.2-20.4 0-8.4-2.4-15.2-7.2-20.4-4.8-5.2-11-7.8-18.6-7.8-7.6 0-13.8 2.6-18.6 7.8-4.8 5.2-7.2 12-7.2 20.4 0 8.4 2.4 15.2 7.2 20.4 4.8 5.2 11 7.8 18.6 7.8z" fill="#3C4B5C"/>
  <path d="M595.8 80.7v22.8h-12v31.2c0 3.6 0.6 6.2 1.8 7.8 1.2 1.6 3.4 2.4 6.6 2.4h3.6v22.8h-9.6c-9.6 0-17.2-2.4-22.8-7.2-5.6-4.8-8.4-12.2-8.4-22.2v-34.8h-10.8v-22.8h10.8v-20.4h25.2v20.4h12z" fill="#3C4B5C"/>
  <path d="M634.2 80.7v22.8h-12v31.2c0 3.6 0.6 6.2 1.8 7.8 1.2 1.6 3.4 2.4 6.6 2.4h3.6v22.8h-9.6c-9.6 0-17.2-2.4-22.8-7.2-5.6-4.8-8.4-12.2-8.4-22.2v-34.8h-10.8v-22.8h10.8v-20.4h25.2v20.4h12z" fill="#3C4B5C"/>
  <path d="M721.4 110.5c0 14.4-4.6 26-13.8 34.8-9.2 8.8-20.8 13.2-34.8 13.2-14 0-25.6-4.4-34.8-13.2-9.2-8.8-13.8-20.4-13.8-34.8 0-14.4 4.6-26 13.8-34.8 9.2-8.8 20.8-13.2 34.8-13.2 14 0 25.6 4.4 34.8 13.2 9.2 8.8 13.8 20.4 13.8 34.8zm-25.2 0c0-8.4-2.4-15.2-7.2-20.4-4.8-5.2-11-7.8-18.6-7.8-7.6 0-13.8 2.6-18.6 7.8-4.8 5.2-7.2 12-7.2 20.4 0 8.4 2.4 15.2 7.2 20.4 4.8 5.2 11 7.8 18.6 7.8 7.6 0 13.8-2.6 18.6-7.8 4.8-5.2 7.2-12 7.2-20.4z" fill="#3C4B5C"/>
  <path d="M795.8 62.5c11.6 0 20.8 3.6 27.6 10.8 6.8 7.2 10.2 17.2 10.2 30v54.3h-25.2v-51.6c0-7.6-1.8-13.4-5.4-17.4-3.6-4-8.6-6-15-6-7.2 0-12.8 2.4-16.8 7.2-4 4.8-6 11.6-6 20.4v47.4h-25.2v-75h25.2v10.8c3.2-4 7.2-7.2 12-9.6 4.8-2.4 10.4-3.6 16.8-3.6z" fill="#3C4B5C"/>
  <path d="M901.4 62.5c7.2 0 13.2 2.4 18 7.2v-46.3h25.2v134.1h-25.2v-7.8c-4.8 6-11.2 9-19.2 9-11.2 0-20.4-4.4-27.6-13.2-7.2-8.8-10.8-20.4-10.8-34.8 0-14.4 3.6-26 10.8-34.8 7.2-8.8 16.4-13.2 27.6-13.2zm4.8 75c7.2 0 13-2.6 17.4-7.8 4.4-5.2 6.6-12 6.6-20.4 0-8.4-2.2-15.2-6.6-20.4-4.4-5.2-10.2-7.8-17.4-7.8-7.2 0-13 2.6-17.4 7.8-4.4 5.2-6.6 12-6.6 20.4 0 8.4 2.2 15.2 6.6 20.4 4.4 5.2 10.2 7.8 17.4 7.8z" fill="#3C4B5C"/>
</svg>

